<svg width="45" height="45" viewBox="0 0 45 45" fill="none" xmlns="http://www.w3.org/2000/svg">
<path d="M5.625 9.375V35.625C5.62487 36.1175 5.72178 36.6052 5.91018 37.0602C6.09859 37.5152 6.37481 37.9287 6.72306 38.2769C7.0713 38.6252 7.48475 38.9014 7.93978 39.0898C8.39481 39.2782 8.88251 39.3751 9.375 39.375H35.625C36.6187 39.3721 37.5708 38.9761 38.2734 38.2734C38.9761 37.5708 39.3721 36.6187 39.375 35.625V9.375C39.3721 8.38133 38.9761 7.42919 38.2734 6.72656C37.5708 6.02392 36.6187 5.6279 35.625 5.625H9.375C8.88251 5.62487 8.39481 5.72178 7.93978 5.91018C7.48475 6.09859 7.0713 6.37481 6.72306 6.72306C6.37481 7.0713 6.09859 7.48475 5.91018 7.93978C5.72178 8.39481 5.62487 8.88251 5.625 9.375V9.375ZM28.125 16.875C28.125 17.9875 27.7951 19.0751 27.177 20.0001C26.5589 20.9251 25.6804 21.6461 24.6526 22.0718C23.6248 22.4976 22.4938 22.609 21.4026 22.3919C20.3115 22.1749 19.3092 21.6391 18.5225 20.8525C17.7359 20.0658 17.2001 19.0635 16.9831 17.9724C16.766 16.8812 16.8774 15.7502 17.3032 14.7224C17.7289 13.6946 18.4499 12.8161 19.3749 12.198C20.2999 11.5799 21.3875 11.25 22.5 11.25C23.239 11.2489 23.9709 11.3937 24.6538 11.676C25.3368 11.9583 25.9573 12.3726 26.4798 12.8952C27.0024 13.4177 27.4167 14.0382 27.699 14.7212C27.9813 15.4041 28.1261 16.136 28.125 16.875V16.875ZM11.25 31.875C11.25 28.125 18.75 26.063 22.5 26.063C26.25 26.063 33.75 28.126 33.75 31.875V33.75H11.25V31.875Z" fill="white" fill-opacity="0.9"/>
</svg>
