<svg width="45" height="45" viewBox="0 0 45 45" fill="none" xmlns="http://www.w3.org/2000/svg">
<path d="M22.5 3.75C18.7916 3.75 15.1665 4.84967 12.0831 6.90994C8.99965 8.97022 6.59641 11.8986 5.17727 15.3247C3.75812 18.7508 3.38681 22.5208 4.11028 26.1579C4.83376 29.7951 6.61952 33.136 9.24176 35.7583C11.864 38.3805 15.2049 40.1663 18.8421 40.8897C22.4792 41.6132 26.2492 41.2419 29.6753 39.8227C33.1014 38.4036 36.0298 36.0004 38.0901 32.9169C40.1503 29.8335 41.25 26.2084 41.25 22.5C41.2482 17.5278 39.2721 12.7597 35.7562 9.2438C32.2403 5.72789 27.4722 3.75186 22.5 3.75V3.75ZM30 24.375H24.375V30C24.375 30.4973 24.1775 30.9742 23.8258 31.3258C23.4742 31.6775 22.9973 31.875 22.5 31.875C22.0027 31.875 21.5258 31.6775 21.1742 31.3258C20.8226 30.9742 20.625 30.4973 20.625 30V24.375H15C14.5027 24.375 14.0258 24.1775 13.6742 23.8258C13.3226 23.4742 13.125 22.9973 13.125 22.5C13.125 22.0027 13.3226 21.5258 13.6742 21.1742C14.0258 20.8225 14.5027 20.625 15 20.625H20.625V15C20.625 14.5027 20.8226 14.0258 21.1742 13.6742C21.5258 13.3225 22.0027 13.125 22.5 13.125C22.9973 13.125 23.4742 13.3225 23.8258 13.6742C24.1775 14.0258 24.375 14.5027 24.375 15V20.625H30C30.4973 20.625 30.9742 20.8225 31.3258 21.1742C31.6775 21.5258 31.875 22.0027 31.875 22.5C31.875 22.9973 31.6775 23.4742 31.3258 23.8258C30.9742 24.1775 30.4973 24.375 30 24.375Z" fill="white" fill-opacity="0.9"/>
</svg>
