<?xml version="1.0" encoding="UTF-8" standalone="no"?>
<!DOCTYPE svg PUBLIC "-//W3C//DTD SVG 1.1//EN" "http://www.w3.org/Graphics/SVG/1.1/DTD/svg11.dtd">
<svg version="1.1" xmlns="http://www.w3.org/2000/svg" xmlns:xlink="http://www.w3.org/1999/xlink" preserveAspectRatio="xMidYMid meet" viewBox="-1 -1 22 22" width="24" height="24"><defs><path d="M0 0L18 0L18 18L0 18L0 0Z" id="bwBNiZ1Zk"></path><path d="M14.25 7.49C14.25 7.49 12.76 7.5 12.75 7.49C12.75 7.34 12.75 6.6 12.75 5.25C11.4 5.25 10.65 5.25 10.5 5.25C10.5 5.25 10.51 3.76 10.5 3.75C10.65 3.75 11.4 3.75 12.75 3.75L12.75 1.5L14.25 1.5L14.25 3.75L16.5 3.75L16.5 5.25L14.25 5.25C14.25 6.6 14.25 7.34 14.25 7.49ZM12 6L9.75 6L9.75 3.75C6.15 3.75 4.15 3.75 3.75 3.75C2.93 3.75 2.25 4.43 2.25 5.25C2.25 6.15 2.25 13.35 2.25 14.25C2.25 15.08 2.93 15.75 3.75 15.75C4.65 15.75 11.85 15.75 12.75 15.75C13.58 15.75 14.25 15.08 14.25 14.25C14.25 13.85 14.25 11.85 14.25 8.25L12 8.25L12 6ZM6 11.25L7.5 13.5L9.75 10.5L12.75 14.25L3.75 14.25L6 11.25Z" id="dhxofHja8"></path></defs><g><g><use xlink:href="#bwBNiZ1Zk" opacity="1" fill="#000000" fill-opacity="0"></use><g><use xlink:href="#bwBNiZ1Zk" opacity="1" fill-opacity="0" stroke="#000000" stroke-width="1" stroke-opacity="0"></use></g></g><g><use xlink:href="#dhxofHja8" opacity="1" fill="#bb86fc" fill-opacity="1"></use><g><use xlink:href="#dhxofHja8" opacity="1" fill-opacity="0" stroke="#000000" stroke-width="1" stroke-opacity="0"></use></g></g></g></svg>