<svg width="30" height="30" viewBox="0 0 30 30" fill="none" xmlns="http://www.w3.org/2000/svg">
<path d="M25.6262 6.48877C25.6262 5.9267 25.4036 5.38752 25.0069 4.98925C24.6103 4.59099 24.0721 4.36608 23.51 4.36377H6.48874C5.92586 4.36607 5.3867 4.5907 4.98868 4.98871C4.59067 5.38673 4.36604 5.92589 4.36374 6.48877V19.255C4.36604 19.8179 4.59067 20.3571 4.98868 20.7551C5.3867 21.1531 5.92586 21.3777 6.48874 21.38H21.3825L25.6325 25.63L25.6262 6.48877ZM21.3762 17.125H8.61374V15H21.3825L21.3762 17.125ZM21.3762 13.9338H8.61374V11.8088H21.3825L21.3762 13.9338ZM21.3762 10.7425H8.61374V8.61377H21.3825L21.3762 10.7425Z" fill="#BB86FC"/>
</svg>
