<svg width="45" height="45" viewBox="0 0 45 45" fill="none" xmlns="http://www.w3.org/2000/svg">
<path d="M30 20.625C31.1125 20.625 32.2001 20.2951 33.1251 19.677C34.0501 19.0589 34.7711 18.1804 35.1968 17.1526C35.6226 16.1248 35.734 14.9938 35.5169 13.9026C35.2999 12.8115 34.7641 11.8092 33.9775 11.0225C33.1908 10.2359 32.1885 9.70013 31.0974 9.48309C30.0062 9.26604 28.8752 9.37744 27.8474 9.80318C26.8196 10.2289 25.9411 10.9499 25.323 11.8749C24.7049 12.7999 24.375 13.8875 24.375 15C24.3717 15.7396 24.5149 16.4726 24.7964 17.1565C25.0779 17.8405 25.4922 18.4619 26.0151 18.9849C26.5381 19.5078 27.1595 19.9221 27.8435 20.2036C28.5274 20.4851 29.2604 20.6283 30 20.625ZM15 20.625C16.1125 20.625 17.2001 20.2951 18.1251 19.677C19.0501 19.0589 19.7711 18.1804 20.1968 17.1526C20.6226 16.1248 20.734 14.9938 20.5169 13.9026C20.2999 12.8115 19.7641 11.8092 18.9775 11.0225C18.1908 10.2359 17.1885 9.70013 16.0974 9.48309C15.0062 9.26604 13.8752 9.37744 12.8474 9.80318C11.8196 10.2289 10.9411 10.9499 10.323 11.8749C9.7049 12.7999 9.375 13.8875 9.375 15C9.37169 15.7396 9.51493 16.4726 9.79644 17.1565C10.0779 17.8405 10.4922 18.4619 11.0151 18.9849C11.5381 19.5078 12.1595 19.9221 12.8435 20.2036C13.5274 20.4851 14.2604 20.6283 15 20.625ZM15 24.375C10.631 24.375 1.875 26.569 1.875 30.938V35.625H28.125V30.938C28.125 26.569 19.369 24.375 15 24.375ZM30 24.375C29.456 24.375 28.837 24.413 28.181 24.469C29.2805 25.1611 30.1927 26.1133 30.837 27.2416C31.4812 28.3698 31.8377 29.6393 31.875 30.938V35.625H43.125V30.938C43.125 26.569 34.369 24.375 30 24.375Z" fill="white" fill-opacity="0.9"/>
</svg>
