<svg width="45" height="45" viewBox="0 0 45 45" fill="none" xmlns="http://www.w3.org/2000/svg">
<path d="M18.752 35.627V26.25H26.252V35.627C26.2536 36.1238 26.4516 36.5998 26.8029 36.9511C27.1542 37.3023 27.6302 37.5004 28.127 37.502H33.752C34.2484 37.4999 34.7239 37.3016 35.0748 36.9504C35.4256 36.5991 35.6234 36.1234 35.625 35.627V22.5H38.813C39.003 22.5016 39.189 22.445 39.3458 22.3377C39.5027 22.2304 39.6229 22.0777 39.6904 21.9C39.7578 21.7223 39.7692 21.5283 39.723 21.3439C39.6768 21.1596 39.5752 20.9938 39.432 20.869L23.752 6.74998C23.406 6.44178 22.9588 6.27148 22.4955 6.27148C22.0321 6.27148 21.585 6.44178 21.239 6.74998L5.56899 20.869C5.42792 20.9948 5.32836 21.1605 5.28345 21.3441C5.23854 21.5277 5.25041 21.7207 5.31749 21.8974C5.38456 22.0741 5.50368 22.2263 5.65911 22.3339C5.81454 22.4415 5.99896 22.4994 6.18799 22.5H9.37499V35.627C9.3771 36.1238 9.57566 36.5996 9.92732 36.9505C10.279 37.3014 10.7552 37.4989 11.252 37.5H16.877C17.3734 37.4984 17.8491 37.3006 18.2004 36.9498C18.5516 36.5989 18.7499 36.1234 18.752 35.627V35.627Z" fill="white" fill-opacity="0.9"/>
</svg>
