<svg width="31" height="31" viewBox="0 0 31 31" fill="none" xmlns="http://www.w3.org/2000/svg">
<path d="M16.518 10.42C16.518 9.41489 16.2199 8.43234 15.6615 7.59661C15.1031 6.76088 14.3094 6.1095 13.3808 5.72486C12.4522 5.34021 11.4304 5.23957 10.4446 5.43566C9.45874 5.63175 8.55321 6.11577 7.84248 6.8265C7.13175 7.53723 6.64774 8.44275 6.45165 9.42857C6.25556 10.4144 6.3562 11.4362 6.74084 12.3648C7.12549 13.2934 7.77686 14.0871 8.61259 14.6455C9.44832 15.204 10.4309 15.502 11.436 15.502C12.1034 15.5021 12.7643 15.3708 13.381 15.1154C13.9976 14.8601 14.5579 14.4858 15.0298 14.0138C15.5017 13.5419 15.8761 12.9816 16.1314 12.365C16.3868 11.7483 16.5181 11.0874 16.518 10.42ZM19.059 12.961V15.502H22.871V19.314H25.412V15.503H29.224V12.962H25.412V9.15001H22.871V12.962L19.059 12.961ZM1.271 23.126V25.667H21.6V23.126C21.6 19.746 14.828 18.044 11.435 18.044C8.042 18.044 1.271 19.747 1.271 23.126Z" fill="white"/>
</svg>
