<svg width="30" height="30" viewBox="0 0 30 30" fill="none" xmlns="http://www.w3.org/2000/svg">
<path d="M22.5 20.1C21.5918 20.1039 20.718 20.4472 20.05 21.0625L11.1375 15.875C11.2064 15.5882 11.2441 15.2948 11.25 15C11.2441 14.7051 11.2064 14.4117 11.1375 14.125L19.95 8.98748C20.5809 9.57143 21.3937 9.92027 22.2517 9.97532C23.1096 10.0304 23.9603 9.78826 24.6607 9.28972C25.3611 8.79119 25.8685 8.06665 26.0974 7.23798C26.3263 6.40932 26.2629 5.52709 25.9177 4.73972C25.5726 3.95234 24.9668 3.30786 24.2023 2.91468C23.4377 2.5215 22.5611 2.40362 21.7199 2.58087C20.8786 2.75812 20.1241 3.21969 19.5832 3.88792C19.0423 4.55615 18.7481 5.39027 18.75 6.24998C18.7558 6.54484 18.7936 6.83821 18.8625 7.12498L10.05 12.2625C9.51623 11.7628 8.84804 11.43 8.12762 11.3051C7.40719 11.1802 6.66598 11.2686 5.99516 11.5595C5.32435 11.8504 4.7532 12.3311 4.35201 12.9423C3.95081 13.5536 3.73706 14.2688 3.73706 15C3.73706 15.7311 3.95081 16.4464 4.35201 17.0576C4.7532 17.6689 5.32435 18.1495 5.99516 18.4404C6.66598 18.7313 7.40719 18.8198 8.12762 18.6949C8.84804 18.57 9.51623 18.2372 10.05 17.7375L18.95 22.9375C18.8852 23.2035 18.8517 23.4762 18.85 23.75C18.85 24.4719 19.0641 25.1776 19.4651 25.7778C19.8662 26.378 20.4362 26.8459 21.1032 27.1221C21.7701 27.3984 22.504 27.4707 23.2121 27.3298C23.9201 27.189 24.5705 26.8414 25.0809 26.3309C25.5914 25.8205 25.939 25.1701 26.0799 24.4621C26.2207 23.754 26.1484 23.0201 25.8721 22.3532C25.5959 21.6862 25.1281 21.1162 24.5278 20.7151C23.9276 20.314 23.2219 20.1 22.5 20.1Z" fill="#BB86FC"/>
</svg>
