<svg width="30" height="30" viewBox="0 0 30 30" fill="none" xmlns="http://www.w3.org/2000/svg">
<path d="M18.75 3.75002H7.5C7.0088 3.74829 6.52811 3.89224 6.11871 4.16369C5.70932 4.43514 5.38961 4.82188 5.2 5.27502L1.425 14.0875C1.30947 14.3779 1.25008 14.6875 1.25 15V17.5C1.25198 18.1624 1.51601 18.7972 1.98442 19.2656C2.45283 19.734 3.08757 19.998 3.75 20H11.6375L10.45 25.7125L10.4125 26.1125C10.4136 26.6095 10.6113 27.0858 10.9625 27.4375L12.2875 28.75L20.525 20.5125C20.7559 20.2809 20.9389 20.006 21.0633 19.7036C21.1877 19.4011 21.2511 19.0771 21.25 18.75V6.25002C21.248 5.58758 20.984 4.95285 20.5156 4.48443C20.0472 4.01602 19.4124 3.75199 18.75 3.75002ZM23.75 3.75002V18.75H28.75V3.75002H23.75Z" fill="#BB86FC"/>
</svg>
