<svg width="30" height="30" viewBox="0 0 30 30" fill="none" xmlns="http://www.w3.org/2000/svg">
<path d="M1.25 26.25H6.25V11.25H1.25V26.25ZM28.75 12.5C28.748 11.8376 28.484 11.2028 28.0156 10.7344C27.5472 10.266 26.9124 10.002 26.25 10H18.3625L19.55 4.2875L19.5875 3.8875C19.5864 3.39052 19.3887 2.91418 19.0375 2.5625L17.7125 1.25L9.4875 9.4875C9.2525 9.71669 9.06608 9.99087 8.93937 10.2937C8.81266 10.5965 8.74825 10.9217 8.75 11.25V23.75C8.75198 24.4124 9.01601 25.0472 9.48442 25.5156C9.95283 25.984 10.5876 26.248 11.25 26.25H22.5C22.9912 26.2517 23.4719 26.1078 23.8813 25.8363C24.2907 25.5649 24.6104 25.1781 24.8 24.725L28.575 15.9125C28.6905 15.6221 28.7499 15.3125 28.75 15V12.5Z" fill="#BB86FC"/>
</svg>
